<svg width="175" height="51" viewBox="0 0 175 51" fill="none" xmlns="http://www.w3.org/2000/svg">
<path fill-rule="evenodd" clip-rule="evenodd" d="M93.057 16.308V39.767H89.471L76.535 23.882V39.767H72.212V16.308H75.798L88.734 32.193V16.308H93.057ZM115.764 30.92C115.764 31.21 115.741 31.623 115.697 32.16H101.655C101.901 33.478 102.537 34.528 103.565 35.31C104.615 36.069 105.911 36.449 107.453 36.449C109.419 36.449 111.039 35.801 112.312 34.505L114.557 37.086C113.753 38.047 112.737 38.773 111.508 39.264C110.279 39.756 108.894 40.002 107.352 40.002C105.386 40.002 103.655 39.61 102.158 38.829C100.661 38.047 99.499 36.963 98.672 35.578C97.868 34.17 97.466 32.584 97.466 30.819C97.466 29.076 97.857 27.512 98.639 26.127C99.443 24.72 100.549 23.625 101.957 22.843C103.364 22.061 104.95 21.67 106.715 21.67C108.458 21.67 110.011 22.061 111.374 22.843C112.759 23.603 113.831 24.686 114.591 26.094C115.373 27.479 115.764 29.088 115.764 30.92H115.764ZM106.715 25.021C105.375 25.021 104.235 25.424 103.297 26.228C102.381 27.01 101.823 28.06 101.622 29.378H111.776C111.597 28.082 111.05 27.032 110.134 26.228C109.218 25.424 108.078 25.021 106.715 25.021ZM130.691 39.767L126.1 33.567L121.475 39.767H116.85L123.821 30.685L117.152 21.871H121.81L126.2 27.736L130.59 21.871H135.115L128.412 30.618L135.416 39.767L130.691 39.767ZM155.506 21.871V39.767H151.518V37.488C150.848 38.292 150.01 38.918 149.005 39.365C147.999 39.789 146.916 40.002 145.754 40.002C143.363 40.002 141.476 39.342 140.09 38.024C138.728 36.684 138.046 34.707 138.046 32.093V21.871H142.235V31.523C142.235 33.131 142.593 34.338 143.308 35.142C144.045 35.924 145.084 36.315 146.424 36.315C147.921 36.315 149.105 35.857 149.977 34.941C150.87 34.003 151.317 32.662 151.317 30.92V21.871H155.506ZM166.52 40.002C165.068 40.002 163.649 39.812 162.264 39.432C160.879 39.052 159.773 38.572 158.947 37.991L160.555 34.807C161.36 35.343 162.32 35.779 163.437 36.114C164.577 36.427 165.694 36.583 166.789 36.583C169.291 36.583 170.542 35.924 170.542 34.606C170.542 33.98 170.218 33.545 169.57 33.299C168.944 33.053 167.928 32.819 166.52 32.595C165.046 32.372 163.839 32.115 162.901 31.824C161.985 31.534 161.181 31.031 160.488 30.316C159.818 29.579 159.483 28.563 159.483 27.267C159.483 25.569 160.187 24.217 161.594 23.212C163.024 22.184 164.945 21.67 167.358 21.67C168.587 21.67 169.816 21.815 171.045 22.106C172.273 22.374 173.279 22.743 174.061 23.212L172.452 26.395C170.933 25.502 169.224 25.055 167.325 25.055C166.096 25.055 165.158 25.245 164.51 25.625C163.884 25.982 163.571 26.463 163.571 27.066C163.571 27.736 163.906 28.216 164.577 28.507C165.269 28.775 166.33 29.032 167.76 29.278C169.19 29.501 170.363 29.758 171.279 30.048C172.195 30.339 172.977 30.83 173.625 31.523C174.295 32.216 174.63 33.199 174.63 34.472C174.63 36.148 173.904 37.488 172.452 38.493C171 39.499 169.023 40.002 166.52 40.002L166.52 40.002Z" fill="#09265e"/>
<path fill-rule="evenodd" clip-rule="evenodd" d="M42.042 50.6983L56.947 18.9423C56.947 18.9423 60.748 12.1733 58.247 7.69433C55.746 3.21433 51.145 2.11933 48.244 1.52233C45.343 0.92433 34.34 -0.0706705 26.137 1.32333C26.137 1.32333 33.94 1.92033 37.441 4.01033C40.942 6.10133 43.642 8.49033 41.642 13.9653C39.741 19.4403 25.537 50.7983 25.537 50.7983H42.042L42.042 50.6983Z" fill="#09265e"/>
<path fill-rule="evenodd" clip-rule="evenodd" d="M14.134 45.8208L26.337 19.8388C26.337 19.8388 29.438 14.3638 27.438 10.6808C25.437 6.99784 21.536 6.10184 19.135 5.60384C16.735 5.10585 7.83202 4.20984 1.03001 5.40484C1.03001 5.40484 7.43201 5.90284 10.233 7.59484C13.033 9.28684 15.234 11.2778 13.734 15.6578C12.233 20.0378 0.629997 45.8208 0.629997 45.8208H14.134Z" fill="#09265e"/>
</svg>
